<svg width="29" height="28" viewBox="0 0 29 28" fill="none" xmlns="http://www.w3.org/2000/svg">
<path d="M22.8413 9.33342C22.6377 8.98076 22.3454 8.68753 21.9934 8.48286C21.6413 8.27819 21.2419 8.16921 20.8347 8.16675H17.9997V5.83341C17.9997 5.524 17.8768 5.22725 17.658 5.00846C17.4392 4.78966 17.1424 4.66675 16.833 4.66675H5.16634C4.5475 4.66675 3.95401 4.91258 3.51643 5.35017C3.07884 5.78775 2.83301 6.38124 2.83301 7.00008V18.6667C2.83343 19.0759 2.94144 19.4778 3.14621 19.8321C3.35098 20.1863 3.64531 20.4805 3.99967 20.6851C3.9579 21.768 4.34805 22.8233 5.08429 23.6186C5.82052 24.4139 6.84254 24.8841 7.92551 24.9259C9.00847 24.9677 10.0637 24.5775 10.859 23.8413C11.6543 23.1051 12.1246 22.083 12.1663 21.0001H15.783C15.912 21.9762 16.3914 22.8722 17.1318 23.5213C17.8723 24.1703 18.8234 24.5281 19.808 24.5281C20.7926 24.5281 21.7437 24.1703 22.4842 23.5213C23.2246 22.8722 23.704 21.9762 23.833 21.0001C24.4518 21.0001 25.0453 20.7542 25.4829 20.3167C25.9205 19.8791 26.1663 19.2856 26.1663 18.6667V15.1667C26.1645 14.9539 26.1083 14.7451 26.003 14.5601L22.8413 9.33342ZM17.9997 10.5001H20.8347L22.9347 14.0001H17.9997V10.5001ZM8.08301 22.1667C7.73689 22.1667 7.39855 22.0641 7.11076 21.8718C6.82297 21.6795 6.59867 21.4062 6.46622 21.0864C6.33376 20.7667 6.29911 20.4148 6.36663 20.0753C6.43416 19.7359 6.60083 19.4241 6.84557 19.1793C7.09031 18.9346 7.40213 18.7679 7.7416 18.7004C8.08107 18.6329 8.43293 18.6675 8.7527 18.8C9.07247 18.9324 9.34579 19.1567 9.53808 19.4445C9.73037 19.7323 9.83301 20.0706 9.83301 20.4167C9.83301 20.8809 9.64863 21.326 9.32044 21.6542C8.99226 21.9824 8.54714 22.1667 8.08301 22.1667ZM19.7497 22.1667C19.4036 22.1667 19.0652 22.0641 18.7774 21.8718C18.4896 21.6795 18.2653 21.4062 18.1329 21.0864C18.0004 20.7667 17.9658 20.4148 18.0333 20.0753C18.1008 19.7359 18.2675 19.4241 18.5122 19.1793C18.757 18.9346 19.0688 18.7679 19.4083 18.7004C19.7477 18.6329 20.0996 18.6675 20.4194 18.8C20.7391 18.9324 21.0125 19.1567 21.2047 19.4445C21.397 19.7323 21.4997 20.0706 21.4997 20.4167C21.4997 20.8809 21.3153 21.326 20.9871 21.6542C20.6589 21.9824 20.2138 22.1667 19.7497 22.1667Z" fill="#00BCD3"/>
</svg>
