<svg width="21" height="26" viewBox="0 0 21 26" fill="none" xmlns="http://www.w3.org/2000/svg">
<path d="M15.1667 11.8334H14V2.50008C14 1.21675 12.95 0.166748 11.6667 0.166748H9.33333C8.05 0.166748 7 1.21675 7 2.50008V11.8334H5.83333C2.61333 11.8334 0 14.4467 0 17.6667V25.8334H21V17.6667C21 14.4467 18.3867 11.8334 15.1667 11.8334ZM18.6667 23.5001H16.3333V20.0001C16.3333 19.3584 15.8083 18.8334 15.1667 18.8334C14.525 18.8334 14 19.3584 14 20.0001V23.5001H11.6667V20.0001C11.6667 19.3584 11.1417 18.8334 10.5 18.8334C9.85833 18.8334 9.33333 19.3584 9.33333 20.0001V23.5001H7V20.0001C7 19.3584 6.475 18.8334 5.83333 18.8334C5.19167 18.8334 4.66667 19.3584 4.66667 20.0001V23.5001H2.33333V17.6667C2.33333 15.7417 3.90833 14.1667 5.83333 14.1667H15.1667C17.0917 14.1667 18.6667 15.7417 18.6667 17.6667V23.5001Z" fill="#7210FF"/>
</svg>
