<svg width="29" height="28" viewBox="0 0 29 28" fill="none" xmlns="http://www.w3.org/2000/svg">
<path d="M21.5003 4.66659V3.49992C21.5003 2.85825 20.9753 2.33325 20.3337 2.33325H6.33366C5.69199 2.33325 5.16699 2.85825 5.16699 3.49992V8.16659C5.16699 8.80825 5.69199 9.33325 6.33366 9.33325H20.3337C20.9753 9.33325 21.5003 8.80825 21.5003 8.16659V6.99992H22.667V11.6666H12.167C11.5253 11.6666 11.0003 12.1916 11.0003 12.8333V24.4999C11.0003 25.1416 11.5253 25.6666 12.167 25.6666H14.5003C15.142 25.6666 15.667 25.1416 15.667 24.4999V13.9999H23.8337C24.4753 13.9999 25.0003 13.4749 25.0003 12.8333V5.83325C25.0003 5.19159 24.4753 4.66659 23.8337 4.66659H21.5003Z" fill="#1A96F0"/>
</svg>
