<svg width="29" height="28" viewBox="0 0 29 28" fill="none" xmlns="http://www.w3.org/2000/svg">
<path d="M3.86035 6.16006V25.0545C3.86035 25.8777 4.55307 26.8801 5.40595 26.8801H24.008C24.8587 26.8801 25.7003 25.8777 25.7003 25.0545V6.16006H3.86035ZM14.7579 21.1546C11.4764 21.1546 8.81579 18.582 8.81579 15.4073C8.81579 12.2327 11.4764 9.66006 14.7579 9.66006C18.0395 9.66006 20.7001 12.2327 20.7001 15.4073C20.7001 18.5825 18.0395 21.1546 14.7579 21.1546V21.1546ZM24.008 0.560059H5.40595C4.55307 0.560059 3.86035 1.13854 3.86035 1.96286V5.04006H25.7003V1.96286C25.7003 1.13854 24.8587 0.560059 24.008 0.560059ZM11.1404 3.92006H4.98035V1.68006H11.1404V3.92006ZM21.8621 3.76326C21.1627 3.76326 20.5976 3.21502 20.5976 2.53798C20.5976 1.86206 21.1627 1.31382 21.8621 1.31382C22.5615 1.31382 23.1283 1.86206 23.1283 2.53798C23.1277 3.21446 22.5615 3.76326 21.8621 3.76326V3.76326Z" fill="#FFC02D"/>
</svg>
