<svg width="29" height="28" viewBox="0 0 29 28" fill="none" xmlns="http://www.w3.org/2000/svg">
<path d="M22.9933 5.75178L20.5199 3.27845C19.6099 2.36845 18.1283 2.36845 17.2183 3.27845L13.9166 6.58011L16.3899 9.05345L18.8633 6.58011L22.9933 10.7101C23.6488 10.0516 24.0169 9.16017 24.0169 8.23095C24.0169 7.30172 23.6488 6.41032 22.9933 5.75178V5.75178ZM6.90492 16.0651C7.59326 16.7534 8.70159 16.7534 9.37826 16.0651L12.2599 13.1834L9.78659 10.6984L6.90492 13.5801C6.21659 14.2684 6.21659 15.3768 6.90492 16.0651Z" fill="#4AAF57"/>
<path d="M18.0462 9.05343L17.2179 9.88177L16.3895 10.7101L12.6795 7.0001C11.9912 6.3001 10.8829 6.3001 10.2062 6.98843C10.0425 7.15012 9.91256 7.34269 9.82387 7.55497C9.73518 7.76726 9.68951 7.99503 9.68951 8.2251C9.68951 8.45517 9.73518 8.68295 9.82387 8.89523C9.91256 9.10751 10.0425 9.30008 10.2062 9.46177L13.9162 13.1718L13.0879 14.0001L5.66785 21.4201C4.75785 22.3301 4.75785 23.8118 5.66785 24.7218C6.57785 25.6318 8.05952 25.6318 8.96952 24.7218L19.6912 14.0001C19.7992 14.1081 19.9274 14.1938 20.0686 14.2522C20.2097 14.3107 20.3609 14.3408 20.5137 14.3408C20.6664 14.3408 20.8177 14.3107 20.9588 14.2522C21.0999 14.1938 21.2282 14.1081 21.3362 14.0001C21.4442 13.8921 21.5299 13.7639 21.5883 13.6227C21.6468 13.4816 21.6769 13.3304 21.6769 13.1776C21.6769 13.0248 21.6468 12.8736 21.5883 12.7325C21.5299 12.5913 21.4442 12.4631 21.3362 12.3551L18.0462 9.05343Z" fill="#4AAF57"/>
</svg>
