<svg width="29" height="28" viewBox="0 0 29 28" fill="none" xmlns="http://www.w3.org/2000/svg">
<path d="M25.828 23.6716L24.1713 25.3283C23.9527 25.5455 23.657 25.6675 23.3488 25.6675C23.0406 25.6675 22.7449 25.5455 22.5263 25.3283L8.66629 11.4916C8.2869 11.6015 7.89456 11.6603 7.49962 11.6666C6.75681 11.6661 6.02485 11.4882 5.36461 11.1478C4.70437 10.8075 4.13491 10.3144 3.7036 9.70965C3.27228 9.10489 2.99155 8.4059 2.88476 7.67081C2.77798 6.93571 2.84821 6.18574 3.08962 5.48325L6.05296 8.44658L6.67129 7.82825L8.32796 6.17159L8.94629 5.55325L5.98296 2.58992C6.68544 2.3485 7.43541 2.27827 8.17051 2.38506C8.90561 2.49185 9.60459 2.77257 10.2094 3.20389C10.8141 3.63521 11.3072 4.20466 11.6475 4.86491C11.9879 5.52515 12.1658 6.25711 12.1663 6.99992C12.1601 7.39486 12.1012 7.7872 11.9913 8.16659L25.828 22.0266C26.0452 22.2452 26.1672 22.5409 26.1672 22.8491C26.1672 23.1573 26.0452 23.453 25.828 23.6716V23.6716ZM3.17129 22.0266C2.954 22.2452 2.83203 22.5409 2.83203 22.8491C2.83203 23.1573 2.954 23.453 3.17129 23.6716L4.82796 25.3283C5.04655 25.5455 5.34224 25.6675 5.65046 25.6675C5.95867 25.6675 6.25437 25.5455 6.47296 25.3283L12.8546 18.9583L9.55296 15.6566L3.17129 22.0266ZM23.833 2.33325L19.1663 4.66659V6.99992L16.6346 9.53159L18.968 11.8649L21.4996 9.33325H23.833L26.1663 4.66659L23.833 2.33325Z" fill="#FF981F"/>
</svg>
