<svg width="28" height="26" viewBox="0 0 28 26" fill="none" xmlns="http://www.w3.org/2000/svg">
<path d="M2.98643 7.36258C2.83039 7.03577 2.77958 6.6686 2.84102 6.3117C2.90245 5.9548 3.0731 5.62574 3.32943 5.36992L4.97909 3.72025C5.23496 3.46436 5.56387 3.29408 5.92052 3.23287C6.27718 3.17165 6.64404 3.2225 6.97059 3.37842L8.69143 1.65758C9.12899 1.22015 9.72238 0.974414 10.3411 0.974414C10.9598 0.974414 11.5532 1.22015 11.9908 1.65758L15.2913 4.95808C15.7287 5.39565 15.9744 5.98903 15.9744 6.60775C15.9744 7.22646 15.7287 7.81985 15.2913 8.25742L13.6404 9.90708L13.5821 9.84875L9.45793 13.9741L9.51626 14.0324L7.86659 15.6821C7.64991 15.8989 7.39264 16.0708 7.10949 16.1881C6.82633 16.3054 6.52284 16.3658 6.21634 16.3658C5.90985 16.3658 5.60635 16.3054 5.3232 16.1881C5.04004 16.0708 4.78277 15.8989 4.56609 15.6821L1.26676 12.3827C1.04999 12.1661 0.878033 11.9088 0.760713 11.6256C0.643393 11.3425 0.583008 11.039 0.583008 10.7325C0.583008 10.426 0.643393 10.1225 0.760713 9.83935C0.878033 9.5562 1.04999 9.29893 1.26676 9.08225L2.98526 7.36258H2.98643ZM11.1064 15.6226L15.2318 11.4984L19.4154 15.6821L15.2913 19.8074L11.1076 15.6237L11.1064 15.6226ZM16.9398 21.4559L21.0651 17.3317L23.1278 19.3944C23.6709 19.9421 23.9749 20.6827 23.9733 21.454C23.9717 22.2254 23.6647 22.9647 23.1193 23.5102C22.574 24.0557 21.8348 24.3629 21.0634 24.3647C20.2921 24.3665 19.5515 24.0627 19.0036 23.5197L16.9409 21.4571L16.9398 21.4559ZM20.2414 3.30725L25.1904 8.25742L20.7116 12.7362C19.9964 13.4514 18.6769 13.2939 17.7658 12.3827L16.1161 10.7319C15.2049 9.82192 15.0463 8.50242 15.7626 7.78608L20.2403 3.30725H20.2414ZM21.8899 1.65758L22.2434 1.30408C22.9586 0.587749 24.2781 0.746416 25.1893 1.65758L26.8389 3.30725C27.7501 4.21842 27.9088 5.53792 27.1924 6.25425L26.8389 6.60775L21.8911 1.65758H21.8899ZM7.04176 19.8074L9.51509 17.3317C9.62341 17.2234 9.75202 17.1374 9.89357 17.0787C10.0351 17.02 10.1869 16.9897 10.3401 16.9897C10.4933 16.9896 10.6451 17.0198 10.7867 17.0783C10.9283 17.1369 11.0569 17.2228 11.1653 17.3312C11.2737 17.4395 11.3597 17.5681 11.4184 17.7096C11.4771 17.8512 11.5074 18.0029 11.5074 18.1562C11.5075 18.3094 11.4773 18.4612 11.4187 18.6028C11.3602 18.7444 11.2742 18.873 11.1659 18.9814L8.69143 21.4582C8.91014 21.677 9.03301 21.9737 9.03301 22.2831C9.03301 22.5924 8.91014 22.8891 8.69143 23.1079L7.04176 24.7576C6.93341 24.8661 6.80474 24.9521 6.66311 25.0108C6.52148 25.0695 6.36966 25.0998 6.21634 25.0998C6.06302 25.0998 5.91121 25.0695 5.76958 25.0108C5.62795 24.9521 5.49928 24.8661 5.39093 24.7576L3.74126 23.1079C3.52254 22.8891 3.39968 22.5924 3.39968 22.2831C3.39968 21.9737 3.52254 21.677 3.74126 21.4582L5.39093 19.8086C5.49928 19.7001 5.62795 19.6141 5.76958 19.5553C5.91121 19.4966 6.06302 19.4664 6.21634 19.4664C6.36966 19.4664 6.52148 19.4966 6.66311 19.5553C6.80474 19.6141 6.93341 19.7001 7.04176 19.8086V19.8074Z" fill="#F54336"/>
</svg>
